<svg width="26" height="21" viewBox="0 0 26 21" fill="none" xmlns="http://www.w3.org/2000/svg">
<path d="M12.492 20.25V17.4167L19.8074 10.35L22.7404 13.1833L15.4251 20.25H12.492ZM0.0697632 13.5833V10.9167H9.73152V13.5833H0.0697632ZM23.7066 12.25L20.7735 9.41667L21.7742 8.45C22.0273 8.20556 22.3493 8.08333 22.7404 8.08333C23.1315 8.08333 23.4535 8.20556 23.7066 8.45L24.7072 9.41667C24.9603 9.66111 25.0868 9.97222 25.0868 10.35C25.0868 10.7278 24.9603 11.0389 24.7072 11.2833L23.7066 12.25ZM0.0697632 8.25V5.58333H15.2525V8.25H0.0697632ZM0.0697632 2.91667V0.25H15.2525V2.91667H0.0697632Z" fill="#DFBD43"/>
</svg>
