<svg width="25" height="25" viewBox="0 0 25 25" fill="none" xmlns="http://www.w3.org/2000/svg">
<path d="M19.2358 17.6641L24.375 22.8021L22.6771 24.5L17.5391 19.3608C15.6273 20.8933 13.2494 21.7269 10.7992 21.7234C4.83804 21.7234 0 16.8854 0 10.9242C0 4.96304 4.83804 0.125 10.7992 0.125C16.7604 0.125 21.5984 4.96304 21.5984 10.9242C21.6019 13.3744 20.7683 15.7523 19.2358 17.6641ZM16.8288 16.7738C18.3516 15.2077 19.202 13.1086 19.1986 10.9242C19.1986 6.28295 15.4393 2.52482 10.7992 2.52482C6.15795 2.52482 2.39982 6.28295 2.39982 10.9242C2.39982 15.5643 6.15795 19.3236 10.7992 19.3236C12.9836 19.327 15.0827 18.4766 16.6488 16.9538L16.8288 16.7738Z" fill="#DFBD43"/>
</svg>
